<svg width="32.000000" height="32.000000" viewBox="0 0 32 32" fill="none" xmlns="http://www.w3.org/2000/svg" xmlns:xlink="http://www.w3.org/1999/xlink">
	<desc>
			Created with Pixso.
	</desc>
	<defs/>
	<rect id="Social Icons / White / Dribbble" width="32.000000" height="32.000000" fill="#FFFFFF" fill-opacity="0"/>
	<g opacity="0.100000">
		<path id="BG" d="M0 16C0 7.16 7.16 0 16 0C24.83 0 32 7.16 32 16C32 24.83 24.83 32 16 32C7.16 32 0 24.83 0 16Z" fill="#FFFFFF" fill-opacity="1.000000" fill-rule="evenodd"/>
	</g>
	<path id="Path" d="M24.53 15.98C24.53 16.56 24.47 17.14 24.35 17.7C24.24 18.25 24.08 18.79 23.86 19.3C23.64 19.81 23.38 20.29 23.07 20.75C22.77 21.2 22.41 21.62 22.03 22.01C21.64 22.39 21.22 22.74 20.77 23.05C20.31 23.36 19.82 23.62 19.32 23.83C18.8 24.05 18.26 24.22 17.71 24.33C17.15 24.45 16.57 24.5 15.99 24.5C15.42 24.5 14.84 24.45 14.28 24.33C13.73 24.22 13.19 24.05 12.67 23.83C12.17 23.62 11.68 23.36 11.22 23.05C10.77 22.74 10.35 22.39 9.96 22.01C9.58 21.62 9.22 21.2 8.92 20.75C8.61 20.29 8.35 19.81 8.13 19.3C7.91 18.79 7.75 18.25 7.63 17.7C7.52 17.14 7.46 16.56 7.46 15.98C7.46 15.41 7.52 14.83 7.63 14.27C7.75 13.72 7.91 13.18 8.13 12.67C8.35 12.16 8.61 11.67 8.92 11.22C9.22 10.77 9.58 10.34 9.96 9.96C10.35 9.57 10.77 9.22 11.22 8.92C11.68 8.61 12.17 8.35 12.67 8.13C13.19 7.91 13.73 7.75 14.28 7.63C14.84 7.52 15.42 7.46 16 7.46C16.57 7.46 17.15 7.52 17.71 7.63C18.26 7.75 18.8 7.91 19.32 8.13C19.82 8.35 20.31 8.61 20.77 8.92C21.22 9.22 21.64 9.57 22.03 9.96C22.41 10.34 22.77 10.77 23.07 11.22C23.38 11.67 23.64 12.16 23.86 12.67C24.08 13.18 24.24 13.72 24.35 14.27C24.47 14.83 24.53 15.41 24.53 15.98ZM12.89 9.4C10.85 10.36 9.34 12.23 8.86 14.48C9.06 14.48 12.09 14.52 15.59 13.59C14.33 11.36 12.98 9.53 12.89 9.4ZM16.2 14.71C12.44 15.84 8.84 15.76 8.71 15.75C8.71 15.83 8.71 15.9 8.71 15.98C8.71 17.85 9.41 19.56 10.57 20.85C10.57 20.84 12.57 17.31 16.5 16.04C16.59 16.01 16.69 15.98 16.79 15.95C16.6 15.54 16.4 15.12 16.2 14.71ZM20.81 10.52C19.52 9.39 17.84 8.71 15.99 8.71C15.4 8.71 14.83 8.78 14.28 8.91C14.39 9.06 15.76 10.87 17 13.16C19.75 12.13 20.79 10.55 20.81 10.52ZM17.28 17.16C17.27 17.16 17.25 17.17 17.23 17.17C12.93 18.67 11.53 21.69 11.52 21.72C12.75 22.68 14.3 23.26 16 23.26C17 23.26 17.97 23.05 18.84 22.68C18.73 22.05 18.31 19.82 17.28 17.16ZM20.07 22.02C21.7 20.92 22.87 19.16 23.19 17.14C23.04 17.09 21 16.44 18.65 16.82C19.6 19.44 19.99 21.58 20.07 22.02ZM17.56 14.24C17.73 14.59 17.9 14.94 18.05 15.29C18.1 15.42 18.15 15.55 18.2 15.67C20.71 15.36 23.17 15.89 23.28 15.91C23.26 14.18 22.64 12.6 21.62 11.36C21.61 11.38 20.44 13.07 17.56 14.24Z" fill="#FFFFFF" fill-opacity="1.000000" fill-rule="evenodd"/>
</svg>
