<svg width="36.000000" height="36.000000" viewBox="0 0 36 36" fill="none" xmlns="http://www.w3.org/2000/svg" xmlns:xlink="http://www.w3.org/1999/xlink">
	<desc>
			Created with Pixso.
	</desc>
	<defs>
		<clipPath id="clip29_1208">
			<rect id="clarity:shopping-cart-outline-badged" width="36.000000" height="36.000000" fill="white" fill-opacity="0"/>
		</clipPath>
	</defs>
	<rect id="clarity:shopping-cart-outline-badged" width="36.000000" height="36.000000" fill="#FFFFFF" fill-opacity="0"/>
	<g clip-path="url(#clip29_1208)">
		<path id="Vector" d="M15.58 29.75C15.58 30.99 14.57 32 13.33 32C12.08 32 11.08 30.99 11.08 29.75C11.08 28.5 12.08 27.5 13.33 27.5C14.57 27.5 15.58 28.5 15.58 29.75Z" fill="#000000" fill-opacity="1.000000" fill-rule="evenodd"/>
		<path id="Vector" d="M29.25 29.75C29.25 30.99 28.24 32 27 32C25.75 32 24.75 30.99 24.75 29.75C24.75 28.5 25.75 27.5 27 27.5C28.24 27.5 29.25 28.5 29.25 29.75Z" fill="#000000" fill-opacity="1.000000" fill-rule="evenodd"/>
		<path id="Vector" d="M22.57 7C22.52 6.66 22.5 6.33 22.5 6C22.5 5.66 22.52 5.33 22.57 5L11.49 5L12.14 7L22.57 7Z" fill="#000000" fill-opacity="1.000000" fill-rule="nonzero"/>
		<path id="Vector" d="M30 13.5L29.58 13.5L28.33 19L13.33 19L8.75 4.53C8.71 4.37 8.62 4.23 8.5 4.12C8.39 4.01 8.25 3.92 8.1 3.87L4 2.61C3.87 2.58 3.74 2.56 3.61 2.58C3.47 2.59 3.35 2.63 3.23 2.69C2.99 2.81 2.82 3.03 2.74 3.28C2.66 3.53 2.69 3.81 2.81 4.05C2.94 4.28 3.15 4.46 3.41 4.54L7 5.63L11.58 20.13L9.95 21.48L9.81 21.61C9.41 22.07 9.18 22.67 9.16 23.29C9.15 23.9 9.35 24.51 9.73 25C10.01 25.33 10.35 25.59 10.75 25.76C11.14 25.94 11.57 26.02 12 26L28.68 26C28.95 26 29.2 25.89 29.39 25.7C29.58 25.51 29.68 25.26 29.68 25C29.68 24.73 29.58 24.48 29.39 24.29C29.2 24.1 28.95 24 28.68 24L11.83 24C11.72 23.99 11.61 23.96 11.51 23.9C11.41 23.84 11.33 23.75 11.27 23.65C11.22 23.55 11.19 23.44 11.19 23.32C11.19 23.21 11.22 23.1 11.27 23L13.68 21L29.12 21C29.36 21 29.58 20.93 29.76 20.78C29.95 20.64 30.07 20.44 30.12 20.21L31.7 13.31C31.14 13.43 30.57 13.5 30 13.5Z" fill="#000000" fill-opacity="1.000000" fill-rule="nonzero"/>
		<path id="Vector" d="M35 6C35 8.76 32.76 11 30 11C27.23 11 25 8.76 25 6C25 3.23 27.23 1 30 1C32.76 1 35 3.23 35 6Z" fill="#000000" fill-opacity="1.000000" fill-rule="evenodd"/>
	</g>
</svg>
