<svg width="32.000000" height="32.000000" viewBox="0 0 32 32" fill="none" xmlns="http://www.w3.org/2000/svg" xmlns:xlink="http://www.w3.org/1999/xlink">
	<desc>
			Created with Pixso.
	</desc>
	<defs/>
	<rect id="Social Icons / White / Twitter" width="32.000000" height="32.000000" fill="#FFFFFF" fill-opacity="0"/>
	<g opacity="0.100000">
		<path id="BG" d="M0 16C0 7.16 7.16 0 16 0C24.83 0 32 7.16 32 16C32 24.83 24.83 32 16 32C7.16 32 0 24.83 0 16Z" fill="#FFFFFF" fill-opacity="1.000000" fill-rule="evenodd"/>
	</g>
	<path id="Path" d="M15.52 13L15.55 13.55L14.99 13.49C12.95 13.23 11.17 12.34 9.66 10.86L8.92 10.13L8.73 10.67C8.33 11.88 8.59 13.16 9.43 14.02C9.88 14.49 9.77 14.56 9 14.28C8.73 14.19 8.5 14.12 8.48 14.15C8.4 14.23 8.67 15.26 8.88 15.67C9.17 16.23 9.76 16.79 10.41 17.11L10.96 17.37L10.31 17.38C9.68 17.38 9.66 17.4 9.73 17.63C9.95 18.37 10.84 19.15 11.82 19.49L12.52 19.72L11.91 20.08C11.02 20.6 9.96 20.9 8.91 20.92C8.41 20.93 8 20.98 8 21.01C8 21.12 9.36 21.76 10.16 22.01C12.54 22.74 15.37 22.42 17.5 21.17C19.01 20.28 20.52 18.5 21.22 16.79C21.6 15.87 21.98 14.2 21.98 13.4C21.98 12.88 22.02 12.81 22.64 12.19C23.01 11.83 23.36 11.43 23.43 11.32C23.54 11.1 23.53 11.1 22.96 11.29C22.01 11.63 21.87 11.59 22.34 11.08C22.69 10.72 23.1 10.06 23.1 9.87C23.1 9.84 22.94 9.89 22.75 9.99C22.54 10.11 22.1 10.28 21.76 10.38L21.16 10.57L20.61 10.2C20.31 9.99 19.88 9.77 19.66 9.7C19.09 9.54 18.21 9.57 17.7 9.75C16.3 10.25 15.41 11.57 15.52 13Z" fill="#FFFFFF" fill-opacity="1.000000" fill-rule="evenodd"/>
</svg>
