<svg width="32.000000" height="32.000000" viewBox="0 0 32 32" fill="none" xmlns="http://www.w3.org/2000/svg" xmlns:xlink="http://www.w3.org/1999/xlink">
	<desc>
			Created with Pixso.
	</desc>
	<defs/>
	<rect id="Social Icons / White / Youtube" width="32.000000" height="32.000000" fill="#FFFFFF" fill-opacity="0"/>
	<g opacity="0.100000">
		<path id="BG" d="M0 16C0 7.16 7.16 0 16 0C24.83 0 32 7.16 32 16C32 24.83 24.83 32 16 32C7.16 32 0 24.83 0 16Z" fill="#FFFFFF" fill-opacity="1.000000" fill-rule="evenodd"/>
	</g>
	<path id="Path" d="M22.66 10.49C23.4 10.7 23.98 11.29 24.17 12.04C24.53 13.41 24.53 16.26 24.53 16.26C24.53 16.26 24.53 19.11 24.17 20.48C23.98 21.23 23.4 21.83 22.66 22.03C21.33 22.4 16 22.4 16 22.4C16 22.4 10.66 22.4 9.33 22.03C8.59 21.83 8.01 21.23 7.82 20.48C7.46 19.11 7.46 16.26 7.46 16.26C7.46 16.26 7.46 13.41 7.82 12.04C8.01 11.29 8.59 10.7 9.33 10.49C10.66 10.13 16 10.13 16 10.13C16 10.13 21.33 10.13 22.66 10.49ZM14.4 13.86L14.4 19.19L18.66 16.53L14.4 13.86Z" fill="#FFFFFF" fill-opacity="1.000000" fill-rule="evenodd"/>
</svg>
